<svg width="121" height="119" viewBox="0 0 121 119" fill="none" xmlns="http://www.w3.org/2000/svg">
<mask id="path-1-outside-1_70_3697" maskUnits="userSpaceOnUse" x="45.392" y="32.9624" width="37" height="41" fill="black">
<rect fill="white" x="45.392" y="32.9624" width="37" height="41"/>
<path fill-rule="evenodd" clip-rule="evenodd" d="M56.4772 37.0089C56.2953 36.6575 55.9292 36.4165 55.5371 36.4702L47.0956 37.6265C46.6263 37.6908 46.3108 38.1407 46.4103 38.6038L53.6284 72.1943C53.7179 72.6104 54.1129 72.8874 54.5346 72.8296L63.2162 71.6404C63.6147 71.5858 63.9046 71.2454 63.979 70.8501C64.3336 68.9643 65.9892 67.5375 67.978 67.5375C69.5776 67.5375 70.9616 68.4605 71.6266 69.8028C71.8052 70.1633 72.1761 70.4131 72.5747 70.3585L81.2286 69.1731C81.6979 69.1088 82.0133 68.6589 81.9138 68.1958L74.6957 34.6053C74.6063 34.1892 74.2113 33.9122 73.7896 33.97L64.8385 35.1961C64.4464 35.2498 64.1586 35.5807 64.0785 35.9683C63.6963 37.819 62.0573 39.2103 60.0934 39.2103C58.5194 39.2103 57.1541 38.3166 56.4772 37.0089Z"/>
</mask>
<path fill-rule="evenodd" clip-rule="evenodd" d="M56.4772 37.0089C56.2953 36.6575 55.9292 36.4165 55.5371 36.4702L47.0956 37.6265C46.6263 37.6908 46.3108 38.1407 46.4103 38.6038L53.6284 72.1943C53.7179 72.6104 54.1129 72.8874 54.5346 72.8296L63.2162 71.6404C63.6147 71.5858 63.9046 71.2454 63.979 70.8501C64.3336 68.9643 65.9892 67.5375 67.978 67.5375C69.5776 67.5375 70.9616 68.4605 71.6266 69.8028C71.8052 70.1633 72.1761 70.4131 72.5747 70.3585L81.2286 69.1731C81.6979 69.1088 82.0133 68.6589 81.9138 68.1958L74.6957 34.6053C74.6063 34.1892 74.2113 33.9122 73.7896 33.97L64.8385 35.1961C64.4464 35.2498 64.1586 35.5807 64.0785 35.9683C63.6963 37.819 62.0573 39.2103 60.0934 39.2103C58.5194 39.2103 57.1541 38.3166 56.4772 37.0089Z" fill="#29B379"/>
<path d="M47.0956 37.6265L47.0462 37.2662H47.0462L47.0956 37.6265ZM46.4103 38.6038L46.0549 38.6802L46.4103 38.6038ZM53.6284 72.1943L53.9839 72.1179L53.6284 72.1943ZM54.5346 72.8296L54.4852 72.4694H54.4852L54.5346 72.8296ZM81.2286 69.1731L81.1792 68.8129L81.2286 69.1731ZM81.9138 68.1958L81.5583 68.2722L81.5583 68.2722L81.9138 68.1958ZM74.6957 34.6053L74.3402 34.6817V34.6817L74.6957 34.6053ZM73.7896 33.97L73.8389 34.3302V34.3302L73.7896 33.97ZM64.8385 35.1961L64.7891 34.8359L64.8385 35.1961ZM64.0785 35.9683L64.4346 36.0419L64.0785 35.9683ZM71.6266 69.8028L71.9524 69.6414L71.6266 69.8028ZM72.5747 70.3585L72.5253 69.9983L72.5747 70.3585ZM63.2162 71.6404L63.2656 72.0007L63.2162 71.6404ZM63.979 70.8501L64.3363 70.9173L63.979 70.8501ZM56.4772 37.0089L56.1543 37.1761L56.4772 37.0089ZM55.4878 36.1099L47.0462 37.2662L47.1449 37.9867L55.5865 36.8304L55.4878 36.1099ZM47.0462 37.2662C46.3673 37.3592 45.9109 38.0102 46.0549 38.6802L46.7658 38.5274C46.7108 38.2712 46.8853 38.0223 47.1449 37.9867L47.0462 37.2662ZM46.0549 38.6802L53.273 72.2706L53.9839 72.1179L46.7658 38.5274L46.0549 38.6802ZM53.273 72.2706C53.4023 72.8727 53.9738 73.2734 54.5839 73.1898L54.4852 72.4694C54.2519 72.5013 54.0334 72.3481 53.9839 72.1179L53.273 72.2706ZM54.5839 73.1898L63.2656 72.0007L63.1669 71.2802L54.4852 72.4694L54.5839 73.1898ZM64.3363 70.9173C64.6592 69.2002 66.1673 67.9011 67.978 67.9011V67.1739C65.8111 67.1739 64.008 68.7284 63.6216 70.7829L64.3363 70.9173ZM67.978 67.9011C69.4341 67.9011 70.6948 68.7409 71.3008 69.9642L71.9524 69.6414C71.2284 68.18 69.7211 67.1739 67.978 67.1739V67.9011ZM72.624 70.7188L81.2779 69.5333L81.1792 68.8129L72.5253 69.9983L72.624 70.7188ZM81.2779 69.5334C81.9569 69.4403 82.4133 68.7894 82.2693 68.1194L81.5583 68.2722C81.6134 68.5284 81.4389 68.7773 81.1792 68.8129L81.2779 69.5334ZM82.2693 68.1194L75.0512 34.529L74.3402 34.6817L81.5583 68.2722L82.2693 68.1194ZM75.0512 34.529C74.9218 33.9269 74.3504 33.5262 73.7402 33.6098L73.8389 34.3302C74.0722 34.2983 74.2908 34.4515 74.3402 34.6817L75.0512 34.529ZM73.7402 33.6098L64.7891 34.8359L64.8878 35.5563L73.8389 34.3302L73.7402 33.6098ZM63.7225 35.8948C63.3744 37.58 61.8814 38.8467 60.0934 38.8467V39.5739C62.2332 39.5739 64.0182 38.0581 64.4346 36.0419L63.7225 35.8948ZM60.0934 38.8467C58.6605 38.8467 57.417 38.0335 56.8001 36.8418L56.1543 37.1761C56.8912 38.5997 58.3782 39.5739 60.0934 39.5739V38.8467ZM64.7891 34.8359C64.2108 34.9151 63.8262 35.3924 63.7225 35.8948L64.4346 36.0419C64.491 35.7691 64.6819 35.5845 64.8878 35.5563L64.7891 34.8359ZM71.3008 69.9642C71.5319 70.4308 72.0362 70.7993 72.624 70.7188L72.5253 69.9983C72.316 70.0269 72.0785 69.8958 71.9524 69.6414L71.3008 69.9642ZM63.2656 72.0007C63.8534 71.9201 64.24 71.4293 64.3363 70.9173L63.6216 70.7829C63.5692 71.0615 63.376 71.2515 63.1669 71.2802L63.2656 72.0007ZM55.5865 36.8304C55.7925 36.8022 56.0262 36.9286 56.1543 37.1761L56.8001 36.8418C56.5645 36.3865 56.0658 36.0308 55.4878 36.1099L55.5865 36.8304Z" fill="#0D0D0D" mask="url(#path-1-outside-1_70_3697)"/>
<mask id="path-3-outside-2_70_3697" maskUnits="userSpaceOnUse" x="45.9441" y="31.8335" width="37" height="41" fill="black">
<rect fill="white" x="45.9441" y="31.8335" width="37" height="41"/>
<path fill-rule="evenodd" clip-rule="evenodd" d="M57.0285 35.88C56.8466 35.5287 56.4805 35.2877 56.0885 35.3414L47.6477 36.4976C47.1784 36.5619 46.863 37.0118 46.9625 37.475L54.1806 71.0654C54.27 71.4816 54.665 71.7585 55.0867 71.7008L63.7672 70.5117C64.1658 70.4571 64.4557 70.1166 64.53 69.7213C64.8844 67.8352 66.5402 66.4082 68.5292 66.4082C70.129 66.4082 71.5131 67.3313 72.178 68.6739C72.3566 69.0345 72.7275 69.2844 73.1261 69.2298L81.7807 68.0443C82.25 67.98 82.5655 67.5301 82.4659 67.067L75.2478 33.4765C75.1584 33.0603 74.7634 32.7834 74.3417 32.8411L65.3894 34.0674C64.9973 34.1211 64.7096 34.452 64.6295 34.8395C64.247 36.6899 62.6082 38.0809 60.6445 38.0809C59.0706 38.0809 57.7055 37.1874 57.0285 35.88Z"/>
</mask>
<path fill-rule="evenodd" clip-rule="evenodd" d="M57.0285 35.88C56.8466 35.5287 56.4805 35.2877 56.0885 35.3414L47.6477 36.4976C47.1784 36.5619 46.863 37.0118 46.9625 37.475L54.1806 71.0654C54.27 71.4816 54.665 71.7585 55.0867 71.7008L63.7672 70.5117C64.1658 70.4571 64.4557 70.1166 64.53 69.7213C64.8844 67.8352 66.5402 66.4082 68.5292 66.4082C70.129 66.4082 71.5131 67.3313 72.178 68.6739C72.3566 69.0345 72.7275 69.2844 73.1261 69.2298L81.7807 68.0443C82.25 67.98 82.5655 67.5301 82.4659 67.067L75.2478 33.4765C75.1584 33.0603 74.7634 32.7834 74.3417 32.8411L65.3894 34.0674C64.9973 34.1211 64.7096 34.452 64.6295 34.8395C64.247 36.6899 62.6082 38.0809 60.6445 38.0809C59.0706 38.0809 57.7055 37.1874 57.0285 35.88Z" fill="#50FF9F"/>
<path d="M65.3894 34.0674L65.34 33.7072L65.3894 34.0674ZM64.6295 34.8395L64.9855 34.9131L64.6295 34.8395ZM75.2478 33.4765L75.6033 33.4001L75.2478 33.4765ZM82.4659 67.067L82.1105 67.1433L82.4659 67.067ZM63.7672 70.5117L63.7179 70.1515L63.7672 70.5117ZM64.53 69.7213L64.1727 69.6541L64.53 69.7213ZM47.6477 36.4976L47.5984 36.1374L47.6477 36.4976ZM72.178 68.6739L71.8522 68.8353L72.178 68.6739ZM73.1261 69.2298L73.1755 69.59L73.1261 69.2298ZM57.0285 35.88L56.7056 36.0472L57.0285 35.88ZM56.0392 34.9812L47.5984 36.1374L47.6971 36.8579L56.1379 35.7017L56.0392 34.9812ZM46.607 37.5513L53.8251 71.1418L54.5361 70.989L47.318 37.3986L46.607 37.5513ZM55.1361 72.061L63.8166 70.872L63.7179 70.1515L55.0374 71.3405L55.1361 72.061ZM64.8874 69.7884C65.2101 68.0711 66.7183 66.7718 68.5292 66.7718V66.0445C66.362 66.0445 64.5588 67.5993 64.1727 69.6541L64.8874 69.7884ZM68.5292 66.7718C69.9855 66.7718 71.2462 67.6117 71.8522 68.8353L72.5038 68.5126C71.78 67.0508 70.2724 66.0445 68.5292 66.0445V66.7718ZM73.1755 69.59L81.83 68.4045L81.7313 67.684L73.0768 68.8695L73.1755 69.59ZM82.8214 66.9906L75.6033 33.4001L74.8924 33.5529L82.1105 67.1433L82.8214 66.9906ZM74.2924 32.4809L65.34 33.7072L65.4387 34.4277L74.391 33.2014L74.2924 32.4809ZM64.2734 34.7659C63.9251 36.4509 62.4323 37.7173 60.6445 37.7173V38.4445C62.7841 38.4445 64.5689 36.929 64.9855 34.9131L64.2734 34.7659ZM60.6445 37.7173C59.2118 37.7173 57.9683 36.9043 57.3514 35.7129L56.7056 36.0472C57.4426 37.4705 58.9295 38.4445 60.6445 38.4445V37.7173ZM65.34 33.7072C64.7618 33.7864 64.3772 34.2636 64.2734 34.7659L64.9855 34.9131C65.0419 34.6404 65.2328 34.4559 65.4387 34.4277L65.34 33.7072ZM75.6033 33.4001C75.474 32.798 74.9025 32.3973 74.2924 32.4809L74.391 33.2014C74.6244 33.1694 74.8429 33.3227 74.8924 33.5529L75.6033 33.4001ZM81.83 68.4045C82.509 68.3115 82.9654 67.6606 82.8214 66.9906L82.1105 67.1433C82.1655 67.3996 81.991 67.6485 81.7313 67.684L81.83 68.4045ZM63.8166 70.872C64.4045 70.7914 64.7911 70.3005 64.8874 69.7884L64.1727 69.6541C64.1203 69.9328 63.9271 70.1228 63.7179 70.1515L63.8166 70.872ZM53.8251 71.1418C53.9545 71.7439 54.5259 72.1446 55.1361 72.061L55.0374 71.3405C54.8041 71.3725 54.5855 71.2193 54.5361 70.989L53.8251 71.1418ZM47.5984 36.1374C46.9194 36.2304 46.463 36.8813 46.607 37.5513L47.318 37.3986C47.2629 37.1424 47.4374 36.8934 47.6971 36.8579L47.5984 36.1374ZM71.8522 68.8353C72.0832 69.3019 72.5876 69.6705 73.1755 69.59L73.0768 68.8695C72.8674 68.8982 72.6299 68.7671 72.5038 68.5126L71.8522 68.8353ZM56.1379 35.7017C56.3438 35.6735 56.5775 35.7998 56.7056 36.0472L57.3514 35.7129C57.1157 35.2577 56.6171 34.902 56.0392 34.9812L56.1379 35.7017Z" fill="#0D0D0D" mask="url(#path-3-outside-2_70_3697)"/>
<path fill-rule="evenodd" clip-rule="evenodd" d="M52.0586 61.2053L59.8938 38.0125C60.1356 38.0573 60.3848 38.0807 60.6396 38.0807C62.6032 38.0807 64.242 36.6898 64.6245 34.8395C64.7047 34.452 64.9924 34.1212 65.3845 34.0675L74.3385 32.841C74.7602 32.7832 75.1552 33.0601 75.2446 33.4763L76.2606 38.2043L66.5625 66.9113C65.5175 67.4875 64.7529 68.5097 64.5252 69.7213C64.4509 70.1166 64.161 70.4571 63.7624 70.5117L55.5149 71.6415L54.2204 71.2041C54.2022 71.1599 54.1877 71.1135 54.1773 71.0652L52.0586 61.2053Z" fill="white"/>
<path d="M62.9754 43.9399L65.7236 47.4979L65.782 47.5735L65.8774 47.5683L70.3664 47.3214L67.8318 51.0346L67.778 51.1135L67.8124 51.2026L69.4344 55.3956L65.1197 54.1325L65.028 54.1057L64.9539 54.166L61.4674 57.0043L61.3353 52.5105L61.3325 52.4149L61.2522 52.3631L57.4755 49.9243L61.7085 48.41L61.7985 48.3778L61.823 48.2855L62.9754 43.9399Z" fill="#2EC773" stroke="#0D0D0D" stroke-width="0.363605"/>
<mask id="path-7-outside-3_70_3697" maskUnits="userSpaceOnUse" x="51.4957" y="58.346" width="32" height="14" fill="black">
<rect fill="white" x="51.4957" y="58.346" width="32" height="14"/>
<path fill-rule="evenodd" clip-rule="evenodd" d="M52.4957 63.2241L54.1809 71.0661C54.2703 71.4822 54.6653 71.7592 55.087 71.7014L63.7675 70.5124C64.1661 70.4578 64.456 70.1173 64.5303 69.7219C64.8847 67.8358 66.5404 66.4088 68.5295 66.4088C70.1292 66.4088 71.5134 67.3319 72.1783 68.6746C72.3568 69.0351 72.7278 69.285 73.1264 69.2304L81.781 68.0449C82.2503 67.9806 82.5657 67.5307 82.4662 67.0676L80.807 59.346L52.4957 63.2241Z"/>
</mask>
<path fill-rule="evenodd" clip-rule="evenodd" d="M52.4957 63.2241L54.1809 71.0661C54.2703 71.4822 54.6653 71.7592 55.087 71.7014L63.7675 70.5124C64.1661 70.4578 64.456 70.1173 64.5303 69.7219C64.8847 67.8358 66.5404 66.4088 68.5295 66.4088C70.1292 66.4088 71.5134 67.3319 72.1783 68.6746C72.3568 69.0351 72.7278 69.285 73.1264 69.2304L81.781 68.0449C82.2503 67.9806 82.5657 67.5307 82.4662 67.0676L80.807 59.346L52.4957 63.2241Z" fill="#29E579"/>
<path d="M52.4957 63.2241L52.4464 62.8638L52.0578 62.917L52.1402 63.3005L52.4957 63.2241ZM54.1809 71.0661L54.5363 70.9897H54.5363L54.1809 71.0661ZM55.087 71.7014L55.1363 72.0617H55.1363L55.087 71.7014ZM63.7675 70.5124L63.8169 70.8726H63.8169L63.7675 70.5124ZM64.5303 69.7219L64.1729 69.6548L64.5303 69.7219ZM72.1783 68.6746L72.5041 68.5132L72.5041 68.5132L72.1783 68.6746ZM73.1264 69.2304L73.1757 69.5906L73.1264 69.2304ZM81.781 68.0449L81.8303 68.4052L81.781 68.0449ZM82.4662 67.0676L82.1107 67.144V67.144L82.4662 67.0676ZM80.807 59.346L81.1625 59.2696L81.0916 58.94L80.7576 58.9858L80.807 59.346ZM52.1402 63.3005L53.8254 71.1425L54.5363 70.9897L52.8512 63.1477L52.1402 63.3005ZM53.8254 71.1425C53.9547 71.7445 54.5262 72.1452 55.1363 72.0617L55.0377 71.3412C54.8043 71.3731 54.5858 71.2199 54.5363 70.9897L53.8254 71.1425ZM55.1363 72.0617L63.8169 70.8726L63.7182 70.1521L55.0377 71.3412L55.1363 72.0617ZM63.8169 70.8726C64.4048 70.7921 64.7914 70.3012 64.8876 69.7891L64.1729 69.6548C64.1206 69.9334 63.9273 70.1235 63.7182 70.1521L63.8169 70.8726ZM64.8876 69.7891C65.2104 68.0717 66.7186 66.7724 68.5295 66.7724V66.0452C66.3623 66.0452 64.5591 67.5999 64.1729 69.6548L64.8876 69.7891ZM68.5295 66.7724C69.9857 66.7724 71.2465 67.6124 71.8524 68.8359L72.5041 68.5132C71.7802 67.0515 70.2727 66.0452 68.5295 66.0452V66.7724ZM71.8524 68.8359C72.0835 69.3026 72.5878 69.6712 73.1757 69.5906L73.0771 68.8702C72.8677 68.8988 72.6301 68.7677 72.5041 68.5132L71.8524 68.8359ZM73.1757 69.5906L81.8303 68.4052L81.7316 67.6847L73.0771 68.8702L73.1757 69.5906ZM81.8303 68.4052C82.5093 68.3121 82.9657 67.6612 82.8217 66.9912L82.1107 67.144C82.1658 67.4002 81.9913 67.6491 81.7316 67.6847L81.8303 68.4052ZM82.8217 66.9912L81.1625 59.2696L80.4515 59.4224L82.1107 67.144L82.8217 66.9912ZM80.7576 58.9858L52.4464 62.8638L52.5451 63.5843L80.8563 59.7063L80.7576 58.9858Z" fill="#0D0D0D" mask="url(#path-7-outside-3_70_3697)"/>
<g filter="url(#filter0_f_70_3697)">
<ellipse cx="68.7191" cy="91.7979" rx="46.7191" ry="4.44944" fill="#4FF640"/>
</g>
<g filter="url(#filter1_f_70_3697)">
<ellipse cx="69.8315" cy="91.7979" rx="32.2584" ry="4.44944" fill="white"/>
</g>
<g filter="url(#filter2_f_70_3697)">
<path d="M96.3606 85.115C96.3606 85.115 120.156 94.0547 69.1657 94.0547C6.84493 94.0547 41.9714 85.115 41.9714 85.115L69.166 75.5367L96.3606 85.115Z" fill="white"/>
</g>
<g style="mix-blend-mode:color-dodge" filter="url(#filter3_f_70_3697)">
<path d="M22.9385 22.4158L60.4385 53.5L98.4385 22.4158L81.9556 95.8316H45.2477L22.9385 22.4158Z" fill="#3AC158"/>
</g>
<defs>
<filter id="filter0_f_70_3697" x="17.5506" y="82.899" width="102.337" height="17.7978" filterUnits="userSpaceOnUse" color-interpolation-filters="sRGB">
<feFlood flood-opacity="0" result="BackgroundImageFix"/>
<feBlend mode="normal" in="SourceGraphic" in2="BackgroundImageFix" result="shape"/>
<feGaussianBlur stdDeviation="2.22472" result="effect1_foregroundBlur_70_3697"/>
</filter>
<filter id="filter1_f_70_3697" x="33.1237" y="82.899" width="73.4157" height="17.7978" filterUnits="userSpaceOnUse" color-interpolation-filters="sRGB">
<feFlood flood-opacity="0" result="BackgroundImageFix"/>
<feBlend mode="normal" in="SourceGraphic" in2="BackgroundImageFix" result="shape"/>
<feGaussianBlur stdDeviation="2.22472" result="effect1_foregroundBlur_70_3697"/>
</filter>
<filter id="filter2_f_70_3697" x="27.2141" y="70.6432" width="79.5855" height="28.3049" filterUnits="userSpaceOnUse" color-interpolation-filters="sRGB">
<feFlood flood-opacity="0" result="BackgroundImageFix"/>
<feBlend mode="normal" in="SourceGraphic" in2="BackgroundImageFix" result="shape"/>
<feGaussianBlur stdDeviation="2.44673" result="effect1_foregroundBlur_70_3697"/>
</filter>
<filter id="filter3_f_70_3697" x="0.691275" y="0.1686" width="119.994" height="117.91" filterUnits="userSpaceOnUse" color-interpolation-filters="sRGB">
<feFlood flood-opacity="0" result="BackgroundImageFix"/>
<feBlend mode="normal" in="SourceGraphic" in2="BackgroundImageFix" result="shape"/>
<feGaussianBlur stdDeviation="11.1236" result="effect1_foregroundBlur_70_3697"/>
</filter>
</defs>
</svg>
