<svg width="298" height="369" viewBox="0 0 298 369" fill="none" xmlns="http://www.w3.org/2000/svg">
<mask id="path-1-outside-1_53_6561" maskUnits="userSpaceOnUse" x="35.8374" y="54.6738" width="247.566" height="292.716" fill="black">
<rect fill="white" x="35.8374" y="54.6738" width="247.566" height="292.716"/>
<path fill-rule="evenodd" clip-rule="evenodd" d="M192.458 63.9015L200.537 62.8919C202.118 69.8163 208.721 74.551 215.919 73.6515C223.117 72.752 228.353 66.5378 228.181 59.4374L236.526 58.3944L267.936 241.65L264.733 242.463C262.778 242.96 261.498 244.835 261.749 246.836L263.105 257.69C263.355 259.691 265.057 261.194 267.074 261.194L271.285 261.194L281.171 318.869L268.914 320.4C267.685 313.035 260.849 307.888 253.37 308.823C245.892 309.757 240.533 316.428 241.154 323.87L229.223 325.361C227.994 317.995 221.157 312.848 213.679 313.783C206.201 314.717 200.841 321.388 201.463 328.83L189.532 330.321C188.303 322.955 181.466 317.808 173.988 318.743C166.51 319.677 161.15 326.348 161.771 333.79L149.84 335.281C148.611 327.915 141.775 322.768 134.297 323.703C126.818 324.637 121.459 331.308 122.08 338.75L110.149 340.241C108.92 332.875 102.084 327.729 94.6053 328.663C87.1271 329.598 81.7674 336.269 82.3889 343.71L70.8068 345.157L66.2078 286.989L71.5867 285.623C73.5419 285.127 74.8215 283.252 74.5713 281.25L73.215 270.397C72.9649 268.395 71.2633 266.893 69.246 266.893L64.6189 266.893L49.9773 81.7071L57.6485 80.7484C59.2292 87.6728 65.8327 92.4075 73.0308 91.508C80.2288 90.6085 85.464 84.3943 85.2921 77.2938L93.3707 76.2843C94.9514 83.2087 101.555 87.9434 108.753 87.0439C115.951 86.1443 121.186 79.9302 121.014 72.8297L129.093 71.8202C130.673 78.7446 137.277 83.4793 144.475 82.5797C151.673 81.6802 156.908 75.4661 156.736 68.3656L164.815 67.356C166.396 74.2804 172.999 79.0151 180.197 78.1156C187.395 77.2161 192.63 71.0019 192.458 63.9015Z"/>
</mask>
<path fill-rule="evenodd" clip-rule="evenodd" d="M192.458 63.9015L200.537 62.8919C202.118 69.8163 208.721 74.551 215.919 73.6515C223.117 72.752 228.353 66.5378 228.181 59.4374L236.526 58.3944L267.936 241.65L264.733 242.463C262.778 242.96 261.498 244.835 261.749 246.836L263.105 257.69C263.355 259.691 265.057 261.194 267.074 261.194L271.285 261.194L281.171 318.869L268.914 320.4C267.685 313.035 260.849 307.888 253.37 308.823C245.892 309.757 240.533 316.428 241.154 323.87L229.223 325.361C227.994 317.995 221.157 312.848 213.679 313.783C206.201 314.717 200.841 321.388 201.463 328.83L189.532 330.321C188.303 322.955 181.466 317.808 173.988 318.743C166.51 319.677 161.15 326.348 161.771 333.79L149.84 335.281C148.611 327.915 141.775 322.768 134.297 323.703C126.818 324.637 121.459 331.308 122.08 338.75L110.149 340.241C108.92 332.875 102.084 327.729 94.6053 328.663C87.1271 329.598 81.7674 336.269 82.3889 343.71L70.8068 345.157L66.2078 286.989L71.5867 285.623C73.5419 285.127 74.8215 283.252 74.5713 281.25L73.215 270.397C72.9649 268.395 71.2633 266.893 69.246 266.893L64.6189 266.893L49.9773 81.7071L57.6485 80.7484C59.2292 87.6728 65.8327 92.4075 73.0308 91.508C80.2288 90.6085 85.464 84.3943 85.2921 77.2938L93.3707 76.2843C94.9514 83.2087 101.555 87.9434 108.753 87.0439C115.951 86.1443 121.186 79.9302 121.014 72.8297L129.093 71.8202C130.673 78.7446 137.277 83.4793 144.475 82.5797C151.673 81.6802 156.908 75.4661 156.736 68.3656L164.815 67.356C166.396 74.2804 172.999 79.0151 180.197 78.1156C187.395 77.2161 192.63 71.0019 192.458 63.9015Z" fill="white"/>
<path d="M200.537 62.8919L201.707 62.6249L201.465 61.5666L200.388 61.7012L200.537 62.8919ZM192.458 63.9015L192.31 62.7107L191.233 62.8453L191.259 63.9305L192.458 63.9015ZM228.181 59.4374L228.032 58.2466L226.955 58.3812L226.981 59.4664L228.181 59.4374ZM236.526 58.3944L237.709 58.1917L237.515 57.0615L236.377 57.2037L236.526 58.3944ZM267.936 241.65L268.231 242.813L269.306 242.54L269.118 241.447L267.936 241.65ZM264.733 242.463L265.029 243.626L265.029 243.626L264.733 242.463ZM267.074 261.194L267.074 259.994L267.074 259.994L267.074 261.194ZM271.285 261.194L272.468 260.991L272.297 259.994L271.285 259.994L271.285 261.194ZM281.171 318.869L281.319 320.06L282.565 319.904L282.353 318.666L281.171 318.869ZM268.914 320.4L267.73 320.598L267.92 321.734L269.063 321.591L268.914 320.4ZM241.154 323.87L241.303 325.06L242.446 324.917L242.35 323.77L241.154 323.87ZM229.223 325.361L228.039 325.558L228.229 326.694L229.372 326.551L229.223 325.361ZM201.463 328.83L201.611 330.02L202.754 329.878L202.659 328.73L201.463 328.83ZM189.532 330.321L188.348 330.518L188.537 331.654L189.68 331.511L189.532 330.321ZM161.771 333.79L161.92 334.981L163.063 334.838L162.967 333.69L161.771 333.79ZM149.84 335.281L148.657 335.478L148.846 336.614L149.989 336.472L149.84 335.281ZM122.08 338.75L122.229 339.941L123.372 339.798L123.276 338.65L122.08 338.75ZM110.149 340.241L108.965 340.438L109.155 341.575L110.298 341.432L110.149 340.241ZM82.3889 343.71L82.5377 344.901L83.6806 344.758L83.5847 343.61L82.3889 343.71ZM70.8068 345.157L69.6106 345.252L69.7096 346.504L70.9556 346.348L70.8068 345.157ZM66.2078 286.989L65.9125 285.826L64.9318 286.075L65.0115 287.084L66.2078 286.989ZM71.5867 285.623L71.8821 286.786L71.8821 286.786L71.5867 285.623ZM69.246 266.893L69.246 268.093L69.246 268.093L69.246 266.893ZM64.6189 266.893L63.4226 266.987L63.51 268.093L64.6189 268.093L64.6189 266.893ZM49.9773 81.7071L49.8285 80.5163L48.6907 80.6585L48.7811 81.8016L49.9773 81.7071ZM57.6485 80.7484L58.8184 80.4813L58.5769 79.4231L57.4997 79.5577L57.6485 80.7484ZM85.2921 77.2938L85.1433 76.1031L84.0661 76.2377L84.0924 77.3229L85.2921 77.2938ZM93.3707 76.2843L94.5406 76.0172L94.299 74.9589L93.2219 75.0935L93.3707 76.2843ZM121.014 72.8297L120.865 71.639L119.788 71.7736L119.815 72.8588L121.014 72.8297ZM129.093 71.8202L130.263 71.5531L130.021 70.4948L128.944 70.6294L129.093 71.8202ZM156.736 68.3656L156.588 67.1749L155.51 67.3095L155.537 68.3947L156.736 68.3656ZM164.815 67.356L165.985 67.089L165.743 66.0307L164.666 66.1653L164.815 67.356ZM200.388 61.7012L192.31 62.7107L192.607 65.0922L200.686 64.0826L200.388 61.7012ZM215.771 72.4608C209.19 73.2831 203.152 68.9545 201.707 62.6249L199.367 63.159C201.084 70.6782 208.252 75.8189 216.068 74.8422L215.771 72.4608ZM226.981 59.4664C227.138 65.957 222.351 71.6384 215.771 72.4608L216.068 74.8422C223.884 73.8655 229.567 67.1186 229.38 59.4083L226.981 59.4664ZM236.377 57.2037L228.032 58.2466L228.329 60.6281L236.675 59.5852L236.377 57.2037ZM269.118 241.447L237.709 58.1917L235.344 58.5971L266.753 241.853L269.118 241.447ZM265.029 243.626L268.231 242.813L267.64 240.487L264.438 241.3L265.029 243.626ZM262.939 246.688C262.764 245.286 263.66 243.974 265.029 243.626L264.438 241.3C261.896 241.946 260.233 244.383 260.558 246.985L262.939 246.688ZM264.296 257.541L262.939 246.688L260.558 246.985L261.914 257.838L264.296 257.541ZM267.074 259.994C265.662 259.994 264.471 258.942 264.296 257.541L261.914 257.838C262.239 260.441 264.451 262.394 267.074 262.394L267.074 259.994ZM271.285 259.994L267.074 259.994L267.074 262.394L271.285 262.394L271.285 259.994ZM282.353 318.666L272.468 260.991L270.103 261.396L279.988 319.072L282.353 318.666ZM269.063 321.591L281.319 320.06L281.022 317.678L268.765 319.21L269.063 321.591ZM253.519 310.013C260.356 309.159 266.607 313.865 267.73 320.598L270.098 320.203C268.763 312.205 261.341 306.617 253.222 307.632L253.519 310.013ZM242.35 323.77C241.782 316.967 246.682 310.868 253.519 310.013L253.222 307.632C245.102 308.646 239.283 315.889 239.958 323.969L242.35 323.77ZM229.372 326.551L241.303 325.06L241.005 322.679L229.074 324.17L229.372 326.551ZM213.828 314.973C220.665 314.119 226.916 318.825 228.039 325.558L230.406 325.163C229.072 317.165 221.65 311.577 213.53 312.592L213.828 314.973ZM202.659 328.73C202.09 321.927 206.991 315.828 213.828 314.973L213.53 312.592C205.411 313.607 199.592 320.849 200.267 328.93L202.659 328.73ZM189.68 331.511L201.611 330.02L201.314 327.639L189.383 329.13L189.68 331.511ZM174.137 319.934C180.974 319.079 187.224 323.785 188.348 330.518L190.715 330.123C189.381 322.125 181.959 316.537 173.839 317.552L174.137 319.934ZM162.967 333.69C162.399 326.887 167.3 320.788 174.137 319.934L173.839 317.552C165.72 318.567 159.901 325.809 160.576 333.89L162.967 333.69ZM149.989 336.472L161.92 334.981L161.623 332.599L149.691 334.09L149.989 336.472ZM134.445 324.894C141.282 324.039 147.533 328.745 148.657 335.478L151.024 335.083C149.689 327.086 142.267 321.498 134.148 322.512L134.445 324.894ZM123.276 338.65C122.708 331.847 127.608 325.748 134.445 324.894L134.148 322.512C126.028 323.527 120.21 330.77 120.884 338.85L123.276 338.65ZM110.298 341.432L122.229 339.941L121.931 337.559L110 339.05L110.298 341.432ZM94.7541 329.854C101.591 328.999 107.842 333.705 108.965 340.438L111.333 340.043C109.998 332.046 102.576 326.458 94.4565 327.472L94.7541 329.854ZM83.5847 343.61C83.0166 336.807 87.9172 330.708 94.7541 329.854L94.4565 327.472C86.337 328.487 80.5183 335.73 81.193 343.81L83.5847 343.61ZM70.9556 346.348L82.5377 344.901L82.2401 342.519L70.658 343.967L70.9556 346.348ZM65.0115 287.084L69.6106 345.252L72.0031 345.063L67.4041 286.895L65.0115 287.084ZM71.2914 284.46L65.9125 285.826L66.5031 288.152L71.8821 286.786L71.2914 284.46ZM73.3806 281.399C73.5557 282.8 72.66 284.113 71.2914 284.46L71.8821 286.786C74.4239 286.141 76.0873 283.704 75.7621 281.101L73.3806 281.399ZM72.0243 270.546L73.3806 281.399L75.7621 281.101L74.4058 270.248L72.0243 270.546ZM69.246 268.093C70.6581 268.093 71.8492 269.145 72.0243 270.546L74.4058 270.248C74.0806 267.646 71.8685 265.693 69.2461 265.693L69.246 268.093ZM64.6189 268.093L69.246 268.093L69.2461 265.693L64.6189 265.693L64.6189 268.093ZM48.7811 81.8016L63.4226 266.987L65.8152 266.798L51.1736 81.6125L48.7811 81.8016ZM57.4997 79.5577L49.8285 80.5163L50.1261 82.8978L57.7973 81.9391L57.4997 79.5577ZM72.882 90.3172C66.3016 91.1396 60.2633 86.811 58.8184 80.4813L56.4786 81.0155C58.1951 88.5346 65.3638 93.6754 73.1796 92.6987L72.882 90.3172ZM84.0924 77.3229C84.2496 83.8135 79.4623 89.4949 72.882 90.3172L73.1796 92.6987C80.9953 91.722 86.6785 84.9751 86.4917 77.2648L84.0924 77.3229ZM93.2219 75.0935L85.1433 76.1031L85.4409 78.4846L93.5195 77.475L93.2219 75.0935ZM108.604 85.8531C102.024 86.6755 95.9855 82.3468 94.5406 76.0172L92.2008 76.5513C93.9172 84.0705 101.086 89.2113 108.902 88.2346L108.604 85.8531ZM119.815 72.8588C119.972 79.3493 115.184 85.0308 108.604 85.8531L108.902 88.2346C116.717 87.2579 122.401 80.511 122.214 72.8007L119.815 72.8588ZM128.944 70.6294L120.865 71.639L121.163 74.0205L129.242 73.0109L128.944 70.6294ZM144.326 81.389C137.746 82.2113 131.708 77.8827 130.263 71.5531L127.923 72.0872C129.639 79.6064 136.808 84.7472 144.624 83.7705L144.326 81.389ZM155.537 68.3947C155.694 74.8852 150.907 80.5667 144.326 81.389L144.624 83.7705C152.44 82.7938 158.123 76.0469 157.936 68.3365L155.537 68.3947ZM164.666 66.1653L156.588 67.1749L156.885 69.5563L164.964 68.5468L164.666 66.1653ZM180.048 76.9249C173.468 77.7472 167.43 73.4186 165.985 67.089L163.645 67.6231C165.362 75.1423 172.53 80.2831 180.346 79.3064L180.048 76.9249ZM191.259 63.9305C191.416 70.4211 186.629 76.1025 180.048 76.9249L180.346 79.3064C188.162 78.3296 193.845 71.5828 193.658 63.8724L191.259 63.9305Z" fill="#0D0D0D" mask="url(#path-1-outside-1_53_6561)"/>
<mask id="path-3-inside-2_53_6561" fill="white">
<path fill-rule="evenodd" clip-rule="evenodd" d="M161.108 221.002C184.673 218.057 201.389 196.566 198.444 173.001C195.499 149.436 174.009 132.72 150.444 135.665C126.879 138.61 110.163 160.101 113.108 183.666C116.053 207.231 137.543 223.946 161.108 221.002ZM166.153 157.889L173.609 163.689L162.689 177.727L176.729 188.648L170.929 196.104L156.89 185.184L145.97 199.223L138.513 193.423L149.433 179.384L135.395 168.464L141.195 161.008L155.233 171.928L166.153 157.889Z"/>
</mask>
<path fill-rule="evenodd" clip-rule="evenodd" d="M161.108 221.002C184.673 218.057 201.389 196.566 198.444 173.001C195.499 149.436 174.009 132.72 150.444 135.665C126.879 138.61 110.163 160.101 113.108 183.666C116.053 207.231 137.543 223.946 161.108 221.002ZM166.153 157.889L173.609 163.689L162.689 177.727L176.729 188.648L170.929 196.104L156.89 185.184L145.97 199.223L138.513 193.423L149.433 179.384L135.395 168.464L141.195 161.008L155.233 171.928L166.153 157.889Z" fill="#C4C4C4"/>
<path d="M173.609 163.689L174.556 164.425L175.293 163.478L174.346 162.741L173.609 163.689ZM166.153 157.889L166.89 156.942L165.942 156.205L165.206 157.152L166.153 157.889ZM162.689 177.727L161.742 176.991L161.006 177.938L161.953 178.675L162.689 177.727ZM176.729 188.648L177.676 189.384L178.413 188.437L177.466 187.7L176.729 188.648ZM170.929 196.104L170.192 197.051L171.14 197.788L171.876 196.841L170.929 196.104ZM156.89 185.184L157.626 184.236L156.679 183.5L155.943 184.447L156.89 185.184ZM145.97 199.223L145.233 200.17L146.18 200.907L146.917 199.96L145.97 199.223ZM138.513 193.423L137.566 192.686L136.829 193.634L137.776 194.37L138.513 193.423ZM149.433 179.384L150.381 180.121L151.117 179.173L150.17 178.437L149.433 179.384ZM135.395 168.464L134.448 167.728L133.711 168.675L134.658 169.411L135.395 168.464ZM141.195 161.008L141.931 160.061L140.984 159.324L140.247 160.271L141.195 161.008ZM155.233 171.928L154.496 172.875L155.444 173.612L156.18 172.664L155.233 171.928ZM197.253 173.15C200.116 196.057 183.867 216.948 160.959 219.811L161.257 222.192C185.479 219.165 202.662 197.075 199.635 172.853L197.253 173.15ZM150.593 136.856C173.5 133.993 194.391 150.243 197.253 173.15L199.635 172.853C196.608 148.63 174.518 131.448 150.295 134.475L150.593 136.856ZM114.299 183.517C111.436 160.609 127.685 139.719 150.593 136.856L150.295 134.475C126.072 137.502 108.89 159.592 111.917 183.814L114.299 183.517ZM160.959 219.811C138.052 222.674 117.161 206.424 114.299 183.517L111.917 183.814C114.944 208.037 137.034 225.219 161.257 222.192L160.959 219.811ZM174.346 162.741L166.89 156.942L165.416 158.836L172.872 164.636L174.346 162.741ZM163.637 178.464L174.556 164.425L172.662 162.952L161.742 176.991L163.637 178.464ZM177.466 187.7L163.426 176.78L161.953 178.675L175.992 189.595L177.466 187.7ZM171.876 196.841L177.676 189.384L175.782 187.911L169.982 195.367L171.876 196.841ZM156.153 186.131L170.192 197.051L171.666 195.157L157.626 184.236L156.153 186.131ZM146.917 199.96L157.837 185.92L155.943 184.447L145.022 198.486L146.917 199.96ZM137.776 194.37L145.233 200.17L146.706 198.276L139.25 192.476L137.776 194.37ZM148.486 178.647L137.566 192.686L139.46 194.16L150.381 180.121L148.486 178.647ZM134.658 169.411L148.697 180.331L150.17 178.437L136.132 167.517L134.658 169.411ZM140.247 160.271L134.448 167.728L136.342 169.201L142.142 161.745L140.247 160.271ZM155.97 170.98L141.931 160.061L140.458 161.955L154.496 172.875L155.97 170.98ZM165.206 157.152L154.286 171.191L156.18 172.664L167.1 158.626L165.206 157.152Z" fill="#0D0D0D" mask="url(#path-3-inside-2_53_6561)"/>
<mask id="path-5-outside-3_53_6561" maskUnits="userSpaceOnUse" x="59.894" y="247.176" width="223.509" height="100.214" fill="black">
<rect fill="white" x="59.894" y="247.176" width="223.509" height="100.214"/>
<path fill-rule="evenodd" clip-rule="evenodd" d="M73.6968 274.252L74.5713 281.25C74.8215 283.252 73.5419 285.127 71.5867 285.623L66.2078 286.989L70.8068 345.157L82.3889 343.71C81.7674 336.269 87.1271 329.598 94.6053 328.663C102.084 327.729 108.92 332.875 110.149 340.241L122.08 338.75C121.459 331.308 126.818 324.637 134.297 323.703C141.775 322.768 148.611 327.915 149.84 335.281L161.771 333.79C161.15 326.348 166.51 319.677 173.988 318.743C181.466 317.808 188.303 322.955 189.532 330.321L201.463 328.83C200.841 321.388 206.201 314.717 213.679 313.783C221.157 312.848 227.994 317.995 229.223 325.361L241.154 323.87C240.533 316.428 245.892 309.757 253.37 308.823C260.849 307.888 267.685 313.035 268.914 320.4L281.171 318.869L271.285 261.194L267.074 261.194C265.057 261.194 263.355 259.691 263.105 257.69L262.23 250.691L73.6968 274.252Z"/>
</mask>
<path fill-rule="evenodd" clip-rule="evenodd" d="M73.6968 274.252L74.5713 281.25C74.8215 283.252 73.5419 285.127 71.5867 285.623L66.2078 286.989L70.8068 345.157L82.3889 343.71C81.7674 336.269 87.1271 329.598 94.6053 328.663C102.084 327.729 108.92 332.875 110.149 340.241L122.08 338.75C121.459 331.308 126.818 324.637 134.297 323.703C141.775 322.768 148.611 327.915 149.84 335.281L161.771 333.79C161.15 326.348 166.51 319.677 173.988 318.743C181.466 317.808 188.303 322.955 189.532 330.321L201.463 328.83C200.841 321.388 206.201 314.717 213.679 313.783C221.157 312.848 227.994 317.995 229.223 325.361L241.154 323.87C240.533 316.428 245.892 309.757 253.37 308.823C260.849 307.888 267.685 313.035 268.914 320.4L281.171 318.869L271.285 261.194L267.074 261.194C265.057 261.194 263.355 259.691 263.105 257.69L262.23 250.691L73.6968 274.252Z" fill="#D2D2D2"/>
<path d="M73.6968 274.252L73.548 273.061L72.3572 273.21L72.506 274.401L73.6968 274.252ZM71.5867 285.623L71.8821 286.786L71.8821 286.786L71.5867 285.623ZM66.2078 286.989L65.9125 285.826L64.9318 286.075L65.0115 287.084L66.2078 286.989ZM70.8068 345.157L69.6106 345.252L69.7096 346.504L70.9556 346.348L70.8068 345.157ZM82.3889 343.71L82.5377 344.901L83.6806 344.758L83.5847 343.61L82.3889 343.71ZM110.149 340.241L108.965 340.438L109.155 341.575L110.298 341.432L110.149 340.241ZM122.08 338.75L122.229 339.941L123.372 339.798L123.276 338.65L122.08 338.75ZM149.84 335.281L148.657 335.478L148.846 336.614L149.989 336.472L149.84 335.281ZM161.771 333.79L161.92 334.981L163.063 334.838L162.967 333.69L161.771 333.79ZM189.532 330.321L188.348 330.518L188.537 331.654L189.68 331.511L189.532 330.321ZM201.463 328.83L201.611 330.02L202.754 329.878L202.659 328.73L201.463 328.83ZM229.223 325.361L228.039 325.558L228.229 326.694L229.372 326.551L229.223 325.361ZM241.154 323.87L241.303 325.06L242.446 324.917L242.35 323.77L241.154 323.87ZM268.914 320.4L267.73 320.598L267.92 321.734L269.063 321.591L268.914 320.4ZM281.171 318.869L281.319 320.06L282.565 319.904L282.353 318.666L281.171 318.869ZM271.285 261.194L272.468 260.991L272.297 259.994L271.285 259.994L271.285 261.194ZM267.074 261.194L267.074 259.994L267.074 259.994L267.074 261.194ZM262.23 250.691L263.421 250.542L263.272 249.352L262.081 249.5L262.23 250.691ZM75.7621 281.101L74.8875 274.103L72.506 274.401L73.3806 281.399L75.7621 281.101ZM71.8821 286.786C74.4239 286.141 76.0873 283.704 75.7621 281.101L73.3806 281.399C73.5557 282.8 72.66 284.113 71.2914 284.46L71.8821 286.786ZM66.5031 288.152L71.8821 286.786L71.2914 284.46L65.9125 285.826L66.5031 288.152ZM72.0031 345.063L67.4041 286.895L65.0115 287.084L69.6106 345.252L72.0031 345.063ZM82.2401 342.519L70.658 343.967L70.9556 346.348L82.5377 344.901L82.2401 342.519ZM94.4565 327.472C86.337 328.487 80.5183 335.73 81.193 343.81L83.5847 343.61C83.0166 336.807 87.9172 330.708 94.7541 329.854L94.4565 327.472ZM111.333 340.043C109.998 332.046 102.576 326.458 94.4565 327.472L94.7541 329.854C101.591 328.999 107.842 333.705 108.965 340.438L111.333 340.043ZM121.931 337.559L110 339.05L110.298 341.432L122.229 339.941L121.931 337.559ZM134.148 322.512C126.028 323.527 120.21 330.77 120.884 338.85L123.276 338.65C122.708 331.847 127.608 325.748 134.445 324.894L134.148 322.512ZM151.024 335.083C149.689 327.086 142.267 321.498 134.148 322.512L134.445 324.894C141.282 324.039 147.533 328.745 148.657 335.478L151.024 335.083ZM161.623 332.599L149.691 334.09L149.989 336.472L161.92 334.981L161.623 332.599ZM173.839 317.552C165.72 318.567 159.901 325.809 160.576 333.89L162.967 333.69C162.399 326.887 167.3 320.788 174.137 319.934L173.839 317.552ZM190.715 330.123C189.381 322.125 181.959 316.537 173.839 317.552L174.137 319.934C180.974 319.079 187.224 323.785 188.348 330.518L190.715 330.123ZM201.314 327.639L189.383 329.13L189.68 331.511L201.611 330.02L201.314 327.639ZM213.53 312.592C205.411 313.607 199.592 320.849 200.267 328.93L202.659 328.73C202.09 321.927 206.991 315.828 213.828 314.973L213.53 312.592ZM230.406 325.163C229.072 317.165 221.65 311.577 213.53 312.592L213.828 314.973C220.665 314.119 226.916 318.825 228.039 325.558L230.406 325.163ZM241.005 322.679L229.074 324.17L229.372 326.551L241.303 325.06L241.005 322.679ZM253.222 307.632C245.102 308.646 239.283 315.889 239.958 323.969L242.35 323.77C241.782 316.967 246.682 310.868 253.519 310.013L253.222 307.632ZM270.098 320.203C268.763 312.205 261.341 306.617 253.222 307.632L253.519 310.013C260.356 309.159 266.607 313.864 267.73 320.598L270.098 320.203ZM281.022 317.678L268.765 319.21L269.063 321.591L281.319 320.06L281.022 317.678ZM270.103 261.396L279.988 319.071L282.353 318.666L272.468 260.991L270.103 261.396ZM267.074 262.394L271.285 262.394L271.285 259.994L267.074 259.994L267.074 262.394ZM261.914 257.838C262.239 260.441 264.451 262.394 267.074 262.394L267.074 259.994C265.662 259.994 264.471 258.942 264.296 257.541L261.914 257.838ZM261.04 250.84L261.914 257.838L264.296 257.541L263.421 250.542L261.04 250.84ZM262.081 249.5L73.548 273.061L73.8456 275.443L262.379 251.882L262.081 249.5Z" fill="#0D0D0D" mask="url(#path-5-outside-3_53_6561)"/>
<g filter="url(#filter0_d_53_6561)">
<mask id="path-7-outside-4_53_6561" maskUnits="userSpaceOnUse" x="2.59682" y="30.61" width="247.566" height="292.716" fill="black">
<rect fill="white" x="2.59682" y="30.61" width="247.566" height="292.716"/>
<path fill-rule="evenodd" clip-rule="evenodd" d="M159.218 39.8377L167.297 38.8281C168.877 45.7525 175.481 50.4872 182.679 49.5877C189.877 48.6882 195.112 42.474 194.94 35.3736L203.286 34.3306L234.695 217.586L231.493 218.4C229.537 218.896 228.258 220.771 228.508 222.773L229.864 233.626C230.114 235.628 231.816 237.13 233.833 237.13L238.045 237.13L247.93 294.805L235.674 296.337C234.445 288.971 227.608 283.824 220.13 284.759C212.652 285.693 207.292 292.364 207.913 299.806L195.982 301.297C194.753 293.931 187.917 288.784 180.439 289.719C172.96 290.653 167.601 297.324 168.222 304.766L156.291 306.257C155.062 298.891 148.226 293.744 140.747 294.679C133.269 295.614 127.909 302.284 128.531 309.726L116.6 311.217C115.371 303.851 108.534 298.705 101.056 299.639C93.5778 300.574 88.2182 307.245 88.8396 314.686L76.9085 316.177C75.6795 308.812 68.843 303.665 61.3648 304.599C53.8866 305.534 48.5269 312.205 49.1483 319.646L37.5663 321.094L32.9673 262.925L38.3462 261.559C40.3014 261.063 41.5809 259.188 41.3308 257.187L39.9745 246.333C39.7243 244.331 38.0228 242.829 36.0055 242.829L31.3784 242.829L16.7368 57.6433L24.408 56.6846C25.9887 63.609 32.5922 68.3437 39.7902 67.4442C46.9882 66.5447 52.2235 60.3305 52.0515 53.2301L60.1301 52.2205C61.7108 59.1449 68.3143 63.8796 75.5124 62.9801C82.7104 62.0806 87.9456 55.8664 87.7737 48.7659L95.8523 47.7564C97.4329 54.6808 104.036 59.4155 111.234 58.516C118.433 57.6164 123.668 51.4023 123.496 44.3018L131.574 43.2923C133.155 50.2167 139.759 54.9514 146.957 54.0518C154.155 53.1523 159.39 46.9381 159.218 39.8377Z"/>
</mask>
<path fill-rule="evenodd" clip-rule="evenodd" d="M159.218 39.8377L167.297 38.8281C168.877 45.7525 175.481 50.4872 182.679 49.5877C189.877 48.6882 195.112 42.474 194.94 35.3736L203.286 34.3306L234.695 217.586L231.493 218.4C229.537 218.896 228.258 220.771 228.508 222.773L229.864 233.626C230.114 235.628 231.816 237.13 233.833 237.13L238.045 237.13L247.93 294.805L235.674 296.337C234.445 288.971 227.608 283.824 220.13 284.759C212.652 285.693 207.292 292.364 207.913 299.806L195.982 301.297C194.753 293.931 187.917 288.784 180.439 289.719C172.96 290.653 167.601 297.324 168.222 304.766L156.291 306.257C155.062 298.891 148.226 293.744 140.747 294.679C133.269 295.614 127.909 302.284 128.531 309.726L116.6 311.217C115.371 303.851 108.534 298.705 101.056 299.639C93.5778 300.574 88.2182 307.245 88.8396 314.686L76.9085 316.177C75.6795 308.812 68.843 303.665 61.3648 304.599C53.8866 305.534 48.5269 312.205 49.1483 319.646L37.5663 321.094L32.9673 262.925L38.3462 261.559C40.3014 261.063 41.5809 259.188 41.3308 257.187L39.9745 246.333C39.7243 244.331 38.0228 242.829 36.0055 242.829L31.3784 242.829L16.7368 57.6433L24.408 56.6846C25.9887 63.609 32.5922 68.3437 39.7902 67.4442C46.9882 66.5447 52.2235 60.3305 52.0515 53.2301L60.1301 52.2205C61.7108 59.1449 68.3143 63.8796 75.5124 62.9801C82.7104 62.0806 87.9456 55.8664 87.7737 48.7659L95.8523 47.7564C97.4329 54.6808 104.036 59.4155 111.234 58.516C118.433 57.6164 123.668 51.4023 123.496 44.3018L131.574 43.2923C133.155 50.2167 139.759 54.9514 146.957 54.0518C154.155 53.1523 159.39 46.9381 159.218 39.8377Z" fill="white"/>
<path d="M167.297 38.8281L168.466 38.5611L168.225 37.5028L167.148 37.6374L167.297 38.8281ZM159.218 39.8377L159.069 38.647L157.992 38.7816L158.018 39.8668L159.218 39.8377ZM194.94 35.3736L194.791 34.1828L193.714 34.3174L193.74 35.4026L194.94 35.3736ZM203.286 34.3306L204.469 34.1279L204.275 32.9977L203.137 33.1399L203.286 34.3306ZM234.695 217.586L234.99 218.749L236.065 218.477L235.878 217.384L234.695 217.586ZM231.493 218.4L231.788 219.563L231.788 219.563L231.493 218.4ZM233.833 237.13L233.833 235.93L233.833 235.93L233.833 237.13ZM238.045 237.13L239.228 236.927L239.057 235.93L238.045 235.93L238.045 237.13ZM247.93 294.805L248.079 295.996L249.325 295.84L249.113 294.602L247.93 294.805ZM235.674 296.337L234.49 296.534L234.679 297.67L235.822 297.527L235.674 296.337ZM207.913 299.806L208.062 300.997L209.205 300.854L209.109 299.706L207.913 299.806ZM195.982 301.297L194.799 301.494L194.988 302.63L196.131 302.488L195.982 301.297ZM168.222 304.766L168.371 305.957L169.514 305.814L169.418 304.666L168.222 304.766ZM156.291 306.257L155.107 306.454L155.297 307.59L156.44 307.448L156.291 306.257ZM128.531 309.726L128.68 310.917L129.823 310.774L129.727 309.626L128.531 309.726ZM116.6 311.217L115.416 311.415L115.606 312.551L116.749 312.408L116.6 311.217ZM88.8396 314.686L88.9884 315.877L90.1313 315.734L90.0354 314.586L88.8396 314.686ZM76.9085 316.177L75.7248 316.375L75.9144 317.511L77.0573 317.368L76.9085 316.177ZM49.1483 319.646L49.2971 320.837L50.44 320.694L50.3442 319.546L49.1483 319.646ZM37.5663 321.094L36.37 321.188L36.469 322.44L37.7151 322.284L37.5663 321.094ZM32.9673 262.925L32.6719 261.762L31.6912 262.011L31.771 263.02L32.9673 262.925ZM38.3462 261.559L38.6415 262.723L38.6415 262.723L38.3462 261.559ZM36.0055 242.829L36.0054 244.029L36.0054 244.029L36.0055 242.829ZM31.3784 242.829L30.1821 242.924L30.2695 244.029L31.3783 244.029L31.3784 242.829ZM16.7368 57.6433L16.588 56.4525L15.4501 56.5947L15.5405 57.7379L16.7368 57.6433ZM24.408 56.6846L25.5779 56.4176L25.3363 55.3593L24.2592 55.4939L24.408 56.6846ZM52.0515 53.2301L51.9027 52.0393L50.8256 52.1739L50.8519 53.2591L52.0515 53.2301ZM60.1301 52.2205L61.3 51.9534L61.0585 50.8952L59.9813 51.0298L60.1301 52.2205ZM87.7737 48.7659L87.6249 47.5752L86.5477 47.7098L86.574 48.795L87.7737 48.7659ZM95.8523 47.7564L97.0222 47.4893L96.7806 46.431L95.7035 46.5656L95.8523 47.7564ZM123.496 44.3018L123.347 43.1111L122.27 43.2457L122.296 44.3309L123.496 44.3018ZM131.574 43.2923L132.744 43.0252L132.503 41.9669L131.426 42.1015L131.574 43.2923ZM167.148 37.6374L159.069 38.647L159.367 41.0284L167.445 40.0189L167.148 37.6374ZM182.53 48.397C175.95 49.2193 169.911 44.8907 168.466 38.5611L166.127 39.0952C167.843 46.6144 175.012 51.7552 182.828 50.7784L182.53 48.397ZM193.74 35.4026C193.898 41.8932 189.11 47.5746 182.53 48.397L182.828 50.7784C190.643 49.8017 196.327 43.0549 196.14 35.3445L193.74 35.4026ZM203.137 33.1399L194.791 34.1828L195.089 36.5643L203.435 35.5214L203.137 33.1399ZM235.878 217.384L204.469 34.1279L202.103 34.5334L233.512 217.789L235.878 217.384ZM231.788 219.563L234.99 218.749L234.4 216.423L231.197 217.236L231.788 219.563ZM229.699 222.624C229.524 221.223 230.419 219.91 231.788 219.563L231.197 217.236C228.655 217.882 226.992 220.319 227.317 222.921L229.699 222.624ZM231.055 233.477L229.699 222.624L227.317 222.921L228.674 233.775L231.055 233.477ZM233.833 235.93C232.421 235.93 231.23 234.878 231.055 233.477L228.674 233.775C228.999 236.377 231.211 238.33 233.833 238.33L233.833 235.93ZM238.045 235.93L233.833 235.93L233.833 238.33L238.045 238.33L238.045 235.93ZM249.113 294.602L239.228 236.927L236.862 237.333L246.747 295.008L249.113 294.602ZM235.822 297.527L248.079 295.996L247.781 293.614L235.525 295.146L235.822 297.527ZM220.279 285.949C227.116 285.095 233.366 289.801 234.49 296.534L236.857 296.139C235.523 288.141 228.101 282.553 219.981 283.568L220.279 285.949ZM209.109 299.706C208.541 292.903 213.442 286.804 220.279 285.949L219.981 283.568C211.862 284.583 206.043 291.825 206.718 299.906L209.109 299.706ZM196.131 302.488L208.062 300.997L207.765 298.615L195.833 300.106L196.131 302.488ZM180.587 290.91C187.424 290.055 193.675 294.761 194.799 301.494L197.166 301.099C195.831 293.101 188.409 287.513 180.29 288.528L180.587 290.91ZM169.418 304.666C168.85 297.863 173.75 291.764 180.587 290.91L180.29 288.528C172.17 289.543 166.352 296.785 167.026 304.866L169.418 304.666ZM156.44 307.448L168.371 305.957L168.073 303.575L156.142 305.066L156.44 307.448ZM140.896 295.87C147.733 295.015 153.984 299.721 155.107 306.454L157.475 306.059C156.14 298.062 148.718 292.474 140.599 293.488L140.896 295.87ZM129.727 309.626C129.159 302.823 134.059 296.724 140.896 295.87L140.599 293.488C132.479 294.503 126.66 301.746 127.335 309.826L129.727 309.626ZM116.749 312.408L128.68 310.917L128.382 308.535L116.451 310.026L116.749 312.408ZM101.205 300.83C108.042 299.975 114.293 304.681 115.416 311.415L117.783 311.02C116.449 303.022 109.027 297.434 100.907 298.448L101.205 300.83ZM90.0354 314.586C89.4673 307.783 94.3679 301.684 101.205 300.83L100.907 298.448C92.7878 299.463 86.969 306.706 87.6438 314.786L90.0354 314.586ZM77.0573 317.368L88.9884 315.877L88.6908 313.495L76.7597 314.986L77.0573 317.368ZM61.5136 305.79C68.3505 304.936 74.6013 309.641 75.7248 316.375L78.0921 315.98C76.7576 307.982 69.3354 302.394 61.216 303.409L61.5136 305.79ZM50.3442 319.546C49.7761 312.744 54.6767 306.644 61.5136 305.79L61.216 303.409C53.0965 304.423 47.2777 311.666 47.9525 319.746L50.3442 319.546ZM37.7151 322.284L49.2971 320.837L48.9995 318.456L37.4175 319.903L37.7151 322.284ZM31.771 263.02L36.37 321.188L38.7626 320.999L34.1635 262.831L31.771 263.02ZM38.0508 260.396L32.6719 261.762L33.2626 264.088L38.6415 262.723L38.0508 260.396ZM40.1401 257.335C40.3152 258.737 39.4195 260.049 38.0508 260.396L38.6415 262.723C41.1833 262.077 42.8467 259.64 42.5215 257.038L40.1401 257.335ZM38.7837 246.482L40.1401 257.335L42.5215 257.038L41.1652 246.184L38.7837 246.482ZM36.0054 244.029C37.4175 244.029 38.6086 245.081 38.7837 246.482L41.1652 246.184C40.84 243.582 38.628 241.629 36.0055 241.629L36.0054 244.029ZM31.3783 244.029L36.0054 244.029L36.0055 241.629L31.3784 241.629L31.3783 244.029ZM15.5405 57.7379L30.1821 242.924L32.5746 242.734L17.933 57.5487L15.5405 57.7379ZM24.2592 55.4939L16.588 56.4525L16.8856 58.834L24.5568 57.8754L24.2592 55.4939ZM39.6414 66.2535C33.0611 67.0758 27.0228 62.7472 25.5779 56.4176L23.2381 56.9517C24.9545 64.4709 32.1233 69.6117 39.939 68.6349L39.6414 66.2535ZM50.8519 53.2591C51.0091 59.7497 46.2217 65.4311 39.6414 66.2535L39.939 68.6349C47.7547 67.6582 53.4379 60.9114 53.2512 53.201L50.8519 53.2591ZM59.9813 51.0298L51.9027 52.0393L52.2003 54.4208L60.2789 53.4112L59.9813 51.0298ZM75.3635 61.7893C68.7832 62.6117 62.7449 58.2831 61.3 51.9534L58.9602 52.4876C60.6767 60.0067 67.8454 65.1475 75.6612 64.1708L75.3635 61.7893ZM86.574 48.795C86.7312 55.2855 81.9439 60.967 75.3635 61.7893L75.6612 64.1708C83.4769 63.1941 89.1601 56.4472 88.9733 48.7369L86.574 48.795ZM95.7035 46.5656L87.6249 47.5752L87.9225 49.9567L96.0011 48.9471L95.7035 46.5656ZM111.086 57.3252C104.505 58.1475 98.4671 53.8189 97.0222 47.4893L94.6824 48.0234C96.3988 55.5426 103.568 60.6834 111.383 59.7067L111.086 57.3252ZM122.296 44.3309C122.453 50.8214 117.666 56.5029 111.086 57.3252L111.383 59.7067C119.199 58.73 124.882 51.9831 124.695 44.2728L122.296 44.3309ZM131.426 42.1015L123.347 43.1111L123.645 45.4926L131.723 44.483L131.426 42.1015ZM146.808 52.8611C140.228 53.6834 134.189 49.3548 132.744 43.0252L130.405 43.5593C132.121 51.0785 139.29 56.2193 147.105 55.2426L146.808 52.8611ZM158.018 39.8668C158.176 46.3573 153.388 52.0388 146.808 52.8611L147.105 55.2426C154.921 54.2659 160.604 47.519 160.418 39.8086L158.018 39.8668Z" fill="#0D0D0D" mask="url(#path-7-outside-4_53_6561)"/>
<path d="M167.361 183.822C167.717 184.904 167.101 186.064 166.005 186.373L98.4991 205.435C97.4694 205.725 96.3932 205.154 96.0569 204.138L73.1124 134.832C72.7535 133.748 73.3738 132.584 74.474 132.277L78.7465 131.086L142.042 113.356C143.071 113.068 144.145 113.64 144.48 114.654L166.271 180.513L167.361 183.822Z" fill="#727272" stroke="#0D0D0D" stroke-width="0.3" stroke-linecap="round" stroke-linejoin="round"/>
<path fill-rule="evenodd" clip-rule="evenodd" d="M166.702 181.823L99.2369 201.069L76.2043 131.795L78.7465 131.086L143.881 112.841L166.271 180.513L166.702 181.823Z" fill="#0D0D0D"/>
<path d="M166.702 181.823L166.781 182.101C166.857 182.079 166.921 182.027 166.957 181.958C166.994 181.889 167.001 181.807 166.976 181.733L166.702 181.823ZM99.2369 201.069L98.9631 201.16C99.0119 201.306 99.1674 201.389 99.316 201.346L99.2369 201.069ZM76.2043 131.795L76.1269 131.517C76.0508 131.538 75.9868 131.589 75.9497 131.659C75.9126 131.729 75.9057 131.811 75.9306 131.886L76.2043 131.795ZM78.7465 131.086L78.824 131.364L78.8243 131.364L78.7465 131.086ZM143.881 112.841L144.154 112.751C144.106 112.604 143.951 112.522 143.803 112.564L143.881 112.841ZM166.271 180.513L166.545 180.423L166.545 180.423L166.271 180.513ZM166.623 181.546L99.1578 200.791L99.316 201.346L166.781 182.101L166.623 181.546ZM99.5106 200.978L76.4781 131.703L75.9306 131.886L98.9631 201.16L99.5106 200.978ZM76.2818 132.072L78.824 131.364L78.669 130.808L76.1269 131.517L76.2818 132.072ZM78.8243 131.364L143.958 113.119L143.803 112.564L78.6687 130.808L78.8243 131.364ZM143.607 112.932L165.997 180.604L166.545 180.423L144.154 112.751L143.607 112.932ZM165.997 180.603L166.428 181.913L166.976 181.733L166.545 180.423L165.997 180.603Z" fill="#0D0D0D"/>
<path d="M173.176 174.037C173.716 175.661 172.789 177.407 171.142 177.871L103.54 196.896C101.997 197.33 100.386 196.475 99.8801 194.955L76.9293 125.952C76.3882 124.325 77.3182 122.576 78.9696 122.115L146.639 103.231C148.18 102.801 149.788 103.656 150.293 105.174L173.176 174.037Z" fill="#D2D2D2" stroke="#0D0D0D" stroke-width="0.3" stroke-linejoin="round"/>
<mask id="mask0_53_6561" style="mask-type:alpha" maskUnits="userSpaceOnUse" x="75" y="102" width="100" height="96">
<path d="M174.143 176.829L100.76 197.481L75.9112 122.772L149.368 102.273L174.143 176.829Z" fill="#FFDF0D"/>
</mask>
<g mask="url(#mask0_53_6561)">
<path d="M131.77 188.775L160.512 124.11L150.402 105.243L107.559 196.646L131.77 188.775Z" fill="white"/>
<path d="M110.515 160.34L100.384 163.172L97.197 153.618L107.344 150.767L110.515 160.34Z" fill="white" stroke="#0D0D0D" stroke-width="0.3" stroke-linecap="round" stroke-linejoin="round"/>
<path d="M116.883 179.481L106.749 182.295L103.58 172.739L113.711 169.908L116.883 179.481Z" fill="white" stroke="#0D0D0D" stroke-width="0.3" stroke-linecap="round" stroke-linejoin="round"/>
<path d="M160.011 167.438L121.598 178.141L118.429 168.585L156.824 157.884L160.011 167.438Z" stroke="#0D0D0D" stroke-width="0.3" stroke-linejoin="round"/>
<path d="M153.648 148.293L115.237 159.014L112.07 149.476L150.463 138.758L153.648 148.293Z" stroke="#0D0D0D" stroke-width="0.3" stroke-linejoin="round"/>
<path d="M147.295 129.197L108.881 139.9L105.712 130.344L144.103 119.608L147.295 129.197Z" stroke="#0D0D0D" stroke-width="0.3" stroke-linejoin="round"/>
<path d="M104.164 141.228L94.03 144.042L90.8432 134.489L100.994 131.672L104.164 141.228Z" fill="white" stroke="#0D0D0D" stroke-width="0.3" stroke-linecap="round" stroke-linejoin="round"/>
</g>
<mask id="path-21-outside-5_53_6561" maskUnits="userSpaceOnUse" x="26.6535" y="223.113" width="223.509" height="100.214" fill="black">
<rect fill="white" x="26.6535" y="223.113" width="223.509" height="100.214"/>
<path fill-rule="evenodd" clip-rule="evenodd" d="M40.4562 250.188L41.3308 257.187C41.5809 259.188 40.3014 261.063 38.3462 261.559L32.9673 262.925L37.5663 321.094L49.1483 319.646C48.5269 312.205 53.8866 305.534 61.3648 304.599C68.843 303.665 75.6795 308.812 76.9085 316.177L88.8396 314.686C88.2182 307.245 93.5778 300.574 101.056 299.639C108.534 298.705 115.371 303.851 116.6 311.217L128.531 309.726C127.909 302.284 133.269 295.614 140.747 294.679C148.226 293.744 155.062 298.891 156.291 306.257L168.222 304.766C167.601 297.324 172.96 290.653 180.439 289.719C187.917 288.784 194.753 293.931 195.982 301.297L207.913 299.806C207.292 292.364 212.652 285.693 220.13 284.759C227.608 283.824 234.445 288.971 235.674 296.337L247.93 294.805L238.045 237.13L233.833 237.13C231.816 237.13 230.114 235.628 229.864 233.626L228.99 226.627L40.4562 250.188Z"/>
</mask>
<path fill-rule="evenodd" clip-rule="evenodd" d="M40.4562 250.188L41.3308 257.187C41.5809 259.188 40.3014 261.063 38.3462 261.559L32.9673 262.925L37.5663 321.094L49.1483 319.646C48.5269 312.205 53.8866 305.534 61.3648 304.599C68.843 303.665 75.6795 308.812 76.9085 316.177L88.8396 314.686C88.2182 307.245 93.5778 300.574 101.056 299.639C108.534 298.705 115.371 303.851 116.6 311.217L128.531 309.726C127.909 302.284 133.269 295.614 140.747 294.679C148.226 293.744 155.062 298.891 156.291 306.257L168.222 304.766C167.601 297.324 172.96 290.653 180.439 289.719C187.917 288.784 194.753 293.931 195.982 301.297L207.913 299.806C207.292 292.364 212.652 285.693 220.13 284.759C227.608 283.824 234.445 288.971 235.674 296.337L247.93 294.805L238.045 237.13L233.833 237.13C231.816 237.13 230.114 235.628 229.864 233.626L228.99 226.627L40.4562 250.188Z" fill="#D2D2D2"/>
<path d="M40.4562 250.188L40.3074 248.997L39.1167 249.146L39.2655 250.337L40.4562 250.188ZM38.3462 261.559L38.6415 262.723L38.6415 262.723L38.3462 261.559ZM32.9673 262.925L32.6719 261.762L31.6912 262.011L31.771 263.02L32.9673 262.925ZM37.5663 321.094L36.37 321.188L36.469 322.44L37.7151 322.284L37.5663 321.094ZM49.1483 319.646L49.2971 320.837L50.44 320.694L50.3442 319.546L49.1483 319.646ZM76.9085 316.177L75.7248 316.375L75.9144 317.511L77.0573 317.368L76.9085 316.177ZM88.8396 314.686L88.9884 315.877L90.1313 315.734L90.0354 314.586L88.8396 314.686ZM116.6 311.217L115.416 311.415L115.606 312.551L116.749 312.408L116.6 311.217ZM128.531 309.726L128.68 310.917L129.823 310.774L129.727 309.626L128.531 309.726ZM156.291 306.257L155.107 306.454L155.297 307.59L156.44 307.448L156.291 306.257ZM168.222 304.766L168.371 305.957L169.514 305.814L169.418 304.666L168.222 304.766ZM195.982 301.297L194.799 301.494L194.988 302.63L196.131 302.488L195.982 301.297ZM207.913 299.806L208.062 300.997L209.205 300.854L209.109 299.706L207.913 299.806ZM235.674 296.337L234.49 296.534L234.679 297.67L235.822 297.527L235.674 296.337ZM247.93 294.805L248.079 295.996L249.325 295.84L249.113 294.602L247.93 294.805ZM238.045 237.13L239.228 236.927L239.057 235.93L238.045 235.93L238.045 237.13ZM233.833 237.13L233.833 235.93L233.833 235.93L233.833 237.13ZM228.99 226.627L230.18 226.479L230.032 225.288L228.841 225.437L228.99 226.627ZM42.5215 257.038L41.647 250.039L39.2655 250.337L40.1401 257.335L42.5215 257.038ZM38.6415 262.723C41.1833 262.077 42.8467 259.64 42.5215 257.038L40.1401 257.335C40.3152 258.737 39.4195 260.049 38.0508 260.396L38.6415 262.723ZM33.2626 264.088L38.6415 262.723L38.0508 260.396L32.6719 261.762L33.2626 264.088ZM38.7626 320.999L34.1635 262.831L31.771 263.02L36.37 321.188L38.7626 320.999ZM48.9995 318.456L37.4175 319.903L37.7151 322.284L49.2971 320.837L48.9995 318.456ZM61.216 303.409C53.0965 304.423 47.2777 311.666 47.9525 319.746L50.3442 319.546C49.7761 312.744 54.6767 306.644 61.5136 305.79L61.216 303.409ZM78.0921 315.98C76.7576 307.982 69.3354 302.394 61.216 303.409L61.5136 305.79C68.3505 304.936 74.6013 309.641 75.7248 316.375L78.0921 315.98ZM88.6908 313.495L76.7597 314.986L77.0573 317.368L88.9884 315.877L88.6908 313.495ZM100.907 298.448C92.7878 299.463 86.969 306.706 87.6438 314.786L90.0354 314.586C89.4673 307.783 94.3679 301.684 101.205 300.83L100.907 298.448ZM117.783 311.02C116.449 303.022 109.027 297.434 100.907 298.448L101.205 300.83C108.042 299.976 114.293 304.681 115.416 311.415L117.783 311.02ZM128.382 308.535L116.451 310.026L116.749 312.408L128.68 310.917L128.382 308.535ZM140.599 293.488C132.479 294.503 126.66 301.746 127.335 309.826L129.727 309.626C129.159 302.823 134.059 296.724 140.896 295.87L140.599 293.488ZM157.475 306.059C156.14 298.062 148.718 292.474 140.599 293.488L140.896 295.87C147.733 295.015 153.984 299.721 155.107 306.454L157.475 306.059ZM168.073 303.575L156.142 305.066L156.44 307.448L168.371 305.957L168.073 303.575ZM180.29 288.528C172.17 289.543 166.352 296.786 167.026 304.866L169.418 304.666C168.85 297.863 173.75 291.764 180.587 290.91L180.29 288.528ZM197.166 301.099C195.831 293.101 188.409 287.513 180.29 288.528L180.587 290.91C187.424 290.055 193.675 294.761 194.799 301.494L197.166 301.099ZM207.765 298.615L195.833 300.106L196.131 302.488L208.062 300.997L207.765 298.615ZM219.981 283.568C211.862 284.583 206.043 291.825 206.718 299.906L209.109 299.706C208.541 292.903 213.442 286.804 220.279 285.949L219.981 283.568ZM236.857 296.139C235.523 288.141 228.101 282.553 219.981 283.568L220.279 285.949C227.116 285.095 233.366 289.801 234.49 296.534L236.857 296.139ZM247.781 293.614L235.525 295.146L235.822 297.527L248.079 295.996L247.781 293.614ZM236.862 237.333L246.747 295.008L249.113 294.602L239.228 236.927L236.862 237.333ZM233.833 238.33L238.045 238.33L238.045 235.93L233.833 235.93L233.833 238.33ZM228.674 233.775C228.999 236.377 231.211 238.33 233.833 238.33L233.833 235.93C232.421 235.93 231.23 234.878 231.055 233.477L228.674 233.775ZM227.799 226.776L228.674 233.775L231.055 233.477L230.18 226.479L227.799 226.776ZM228.841 225.437L40.3074 248.997L40.605 251.379L229.139 227.818L228.841 225.437Z" fill="#0D0D0D" mask="url(#path-21-outside-5_53_6561)"/>
<path d="M54.9944 283.14L53.5059 283.326L53.8779 286.302L55.3664 286.116L54.9944 283.14ZM55.3664 286.116L93.0731 281.404L92.7011 278.427L54.9944 283.14L55.3664 286.116ZM84.709 272.876C85.3538 278.036 89.9472 281.795 95.0576 281.156L94.6856 278.179C91.3105 278.601 88.1368 276.112 87.6858 272.504L84.709 272.876ZM94.6856 278.179C89.5753 278.818 86.0481 283.592 86.6929 288.752L89.6697 288.38C89.2188 284.772 91.6825 281.578 95.0576 281.156L94.6856 278.179Z" fill="#0D0D0D"/>
</g>
<path d="M21.8163 99.7515L27.7655 89.9729L22.3314 79.1021L16.3828 88.8708L21.8163 99.7515Z" fill="#F2F2F2" stroke="#0D0D0D" stroke-width="0.4" stroke-linecap="round" stroke-linejoin="round"/>
<path d="M10.9485 78L22.3313 79.1021L16.3827 88.8708L5 87.7687L10.9485 78Z" fill="white" stroke="#0D0D0D" stroke-width="0.4" stroke-linecap="round" stroke-linejoin="round"/>
<path d="M5 87.7687L10.4335 98.6495L21.8162 99.7516L16.3827 88.8708L5 87.7687Z" fill="#D2D2D2" stroke="#0D0D0D" stroke-width="0.4" stroke-linecap="round" stroke-linejoin="round"/>
<path d="M214.881 31.9543C215.751 30.1476 215.909 28.079 215.322 26.1614C214.735 24.2437 213.447 22.6174 211.715 21.6075L203.103 16.5574L212.136 20.9175C213.931 21.7907 215.989 21.9561 217.901 21.3807C219.812 20.8047 221.436 19.5309 222.451 17.8116L227.563 9.16651L223.184 18.0691C222.294 19.8779 222.122 21.9566 222.705 23.8865C223.287 25.8164 224.58 27.4535 226.322 28.4673L234.893 33.4512L225.915 29.1097C224.109 28.2367 222.04 28.0783 220.121 28.665C218.203 29.2523 216.577 30.5416 215.568 32.2756L210.558 40.8973L214.881 31.9543Z" fill="white"/>
<path d="M25.0527 357.911C24.5514 356.611 23.579 355.549 22.3304 354.936C21.0814 354.323 19.648 354.204 18.3167 354.603L11.6929 356.604L18.22 354.076C19.5082 353.576 20.5618 352.611 21.1723 351.37C21.783 350.129 21.9058 348.703 21.5171 347.374L19.5424 340.643L21.9789 347.089C22.4756 348.397 23.4491 349.469 24.7027 350.087C25.9564 350.705 27.3971 350.825 28.7342 350.421L35.3234 348.443L28.8685 350.936C27.5734 351.441 26.5158 352.415 25.9061 353.666C25.2965 354.917 25.1795 356.353 25.5784 357.688L27.5805 364.315L25.0527 357.911Z" fill="white"/>
<path d="M276.271 301.58C275.011 303.762 274.669 306.355 275.321 308.788C275.972 311.222 277.563 313.297 279.744 314.558C280.202 314.824 280.682 315.049 281.179 315.231C283.065 315.934 285.125 316.02 287.063 315.478C289.001 314.935 290.717 313.79 291.963 312.21C292.14 311.981 292.302 311.757 292.474 311.493C292.555 311.352 292.637 311.211 292.716 311.074C293.769 309.256 294.189 307.138 293.91 305.055C293.632 302.972 292.67 301.04 291.175 299.562C289.681 298.084 287.738 297.143 285.652 296.888C283.565 296.632 281.453 297.076 279.647 298.15C278.242 298.981 277.079 300.163 276.271 301.58Z" fill="#D2D2D2" stroke="#0D0D0D" stroke-width="0.224784" stroke-linecap="round" stroke-linejoin="round"/>
<path d="M278.892 299.278C277.839 301.097 277.42 303.213 277.699 305.297C277.978 307.38 278.94 309.312 280.434 310.79C281.928 312.268 283.87 313.21 285.956 313.466C288.042 313.724 290.155 313.281 291.963 312.21C292.242 311.851 292.497 311.474 292.725 311.08C293.779 309.261 294.199 307.144 293.92 305.061C293.642 302.977 292.679 301.045 291.185 299.568C289.691 298.089 287.748 297.149 285.662 296.893C283.575 296.638 281.463 297.082 279.656 298.155C279.373 298.51 279.117 298.884 278.892 299.278Z" fill="white" stroke="#0D0D0D" stroke-width="0.224784" stroke-linecap="round" stroke-linejoin="round"/>
<path d="M291.484 304.587C292.138 304.142 291.996 302.793 291.168 301.574C290.339 300.355 289.137 299.728 288.482 300.172C287.827 300.617 287.969 301.966 288.798 303.185C289.626 304.405 290.829 305.032 291.484 304.587Z" fill="black" stroke="#0D0D0D" stroke-width="0.224784" stroke-linecap="round" stroke-linejoin="round"/>
<defs>
<filter id="filter0_d_53_6561" x="15.4501" y="32.9977" width="241.875" height="297.443" filterUnits="userSpaceOnUse" color-interpolation-filters="sRGB">
<feFlood flood-opacity="0" result="BackgroundImageFix"/>
<feColorMatrix in="SourceAlpha" type="matrix" values="0 0 0 0 0 0 0 0 0 0 0 0 0 0 0 0 0 0 127 0" result="hardAlpha"/>
<feOffset dx="8" dy="8"/>
<feComposite in2="hardAlpha" operator="out"/>
<feColorMatrix type="matrix" values="0 0 0 0 0 0 0 0 0 0 0 0 0 0 0 0 0 0 1 0"/>
<feBlend mode="normal" in2="BackgroundImageFix" result="effect1_dropShadow_53_6561"/>
<feBlend mode="normal" in="SourceGraphic" in2="effect1_dropShadow_53_6561" result="shape"/>
</filter>
</defs>
</svg>
