<svg width="69" height="68" viewBox="0 0 69 68" fill="none" xmlns="http://www.w3.org/2000/svg">
<path d="M32.0567 66.9997L1.06641 44.2265L37.0097 28.5208L68 51.294L32.0567 66.9997Z" fill="#0D0D0D" stroke="#0D0D0D" stroke-width="0.2" stroke-linecap="round" stroke-linejoin="round"/>
<path d="M67.933 51.2942L36.9429 28.521V14.9874L67.933 37.7606V51.2942Z" fill="#FFCB45" stroke="#0D0D0D" stroke-width="0.2" stroke-linecap="round" stroke-linejoin="round"/>
<path d="M67.935 37.7441V51.2944L31.9917 67V53.4664L67.935 37.7441Z" fill="#FFF066" stroke="#0D0D0D" stroke-width="0.2" stroke-linecap="round" stroke-linejoin="round"/>
<path d="M36.9433 14.9708V28.5211L1 44.2267V30.6765L36.9433 14.9708Z" fill="#FFF066" stroke="#0D0D0D" stroke-width="0.2" stroke-linecap="round" stroke-linejoin="round"/>
<path d="M32.0567 66.9997L1.06641 44.2265V31.0104L32.0567 53.4661V66.9997Z" fill="#FFCB45" stroke="#0D0D0D" stroke-width="0.2" stroke-linecap="round" stroke-linejoin="round"/>
<path d="M67.9341 30.7098L66.2607 35.2043L30.3174 50.9099L31.9907 46.4154L67.9341 30.7098Z" fill="#FFF066" stroke="#0D0D0D" stroke-width="0.2" stroke-linecap="round" stroke-linejoin="round"/>
<path d="M31.9903 46.4151L30.3169 50.9096L1 20.3671L2.67334 15.8726L31.9903 46.4151Z" fill="#FFCB45" stroke="#0D0D0D" stroke-width="0.2" stroke-linecap="round" stroke-linejoin="round"/>
<path d="M2.67249 15.873L31.9894 46.4154L67.9327 30.7098L38.6158 0.167328L2.67249 15.873Z" fill="#FFF066" stroke="#0D0D0D" stroke-width="0.2" stroke-linecap="round" stroke-linejoin="round"/>
<path d="M18.2007 9.08951L47.5176 39.632L52.4037 37.4933L23.0868 6.95087L18.2007 9.08951Z" fill="#3F6FD9" stroke="#020203" stroke-width="0.2" stroke-linecap="round" stroke-linejoin="round"/>
<path d="M15.4918 29.2229L19.1899 33.0824L55.1332 17.3601L51.4184 13.5172L15.4918 29.2229Z" fill="#3F6FD9" stroke="#020203" stroke-width="0.2" stroke-linecap="round" stroke-linejoin="round"/>
<path d="M40.4229 20.4843C39.1861 19.1996 37.5843 18.3249 35.8337 17.9783C34.0831 17.6317 32.2681 17.8299 30.6339 18.5461C30.0206 18.8149 29.481 19.2273 29.0613 19.7485C28.6415 20.2696 28.3539 20.8841 28.2226 21.5399C28.0912 22.1957 28.12 22.8734 28.3067 23.5157C28.4935 24.158 28.8325 24.7458 29.2952 25.2294C30.5256 26.5177 32.1208 27.4001 33.8672 27.7584C35.6137 28.1167 37.4279 27.9339 39.0674 27.2344C39.6885 26.9648 40.2352 26.5492 40.6607 26.023C41.0861 25.4969 41.3779 24.8759 41.511 24.2128C41.6442 23.5498 41.6147 22.8644 41.4252 22.2152C41.2358 21.566 40.8919 20.9721 40.4229 20.4843Z" fill="#3F6FD9" stroke="#020203" stroke-width="0.2" stroke-linecap="round" stroke-linejoin="round"/>
<path d="M14.8052 16.1401C19.9424 16.8418 24.4102 14.9705 24.8452 11.9798C24.8675 11.0379 24.6236 10.1087 24.1411 9.29902C23.6587 8.48929 22.9575 7.83176 22.1179 7.40176L8.24585 13.4668C10.1401 14.9508 12.4119 15.8768 14.8052 16.1401Z" fill="#0D0D0D" stroke="#020203" stroke-width="0.2" stroke-linecap="round" stroke-linejoin="round"/>
<path d="M52.3876 14.5191C51.5374 14.9764 50.8373 15.6689 50.3713 16.5135C49.9053 17.3581 49.6931 18.319 49.7603 19.2809C50.2958 22.2382 54.8642 23.9091 59.9511 22.9901L60.4195 22.8899L52.3876 14.5191Z" fill="#0D0D0D" stroke="#020203" stroke-width="0.2" stroke-linecap="round" stroke-linejoin="round"/>
<path d="M47.5208 39.6315L45.8474 44.126L50.7336 41.9873L52.4069 37.4929L47.5208 39.6315Z" fill="#3F6FD9" stroke="#020203" stroke-width="0.2" stroke-linecap="round" stroke-linejoin="round"/>
<path d="M15.4918 29.2225L13.8018 33.7003L17.5166 37.5599L19.1899 33.0821L15.4918 29.2225Z" fill="#144CC7" stroke="#020203" stroke-width="0.2" stroke-linecap="round" stroke-linejoin="round"/>
<path d="M24.0588 11.4287L24.7952 9.44043L7.20836 2.99112L6.48874 4.97939C5.45127 7.81977 8.54695 11.5457 13.3996 13.3335C18.2523 15.1212 23.0213 14.2691 24.0588 11.4287Z" fill="#FFCB45"/>
<path d="M24.0588 11.4287L24.7952 9.44043L7.20836 2.99112L6.48874 4.97939C5.45127 7.81977 8.54695 11.5457 13.3996 13.3335C18.2523 15.1212 23.0213 14.2691 24.0588 11.4287Z" stroke="#020203" stroke-width="0.2" stroke-linecap="round" stroke-linejoin="round"/>
<path d="M14.1197 11.3452C18.9892 13.1163 23.7582 12.2475 24.7956 9.42379C25.8331 6.60011 22.7374 2.85749 17.8847 1.06972C13.0321 -0.718046 8.2463 0.167491 7.20883 3.00787C6.17136 5.84825 9.26705 9.6744 14.1197 11.3452Z" fill="#FFF066" stroke="#020203" stroke-width="0.2" stroke-linecap="round" stroke-linejoin="round"/>
<path d="M22.0161 10.2759C19.5952 11.1015 16.9535 11.0003 14.6031 9.99191C10.2357 8.40464 7.90976 5.29692 8.56236 3.50915C8.69114 3.20358 8.88548 2.92983 9.13145 2.70714C9.36819 2.47043 9.65368 2.28803 9.96812 2.17252C12.389 1.34694 15.0305 1.44813 17.3809 2.45653C21.765 4.0438 24.0742 7.1515 23.4384 8.92257C23.304 9.22987 23.1108 9.50802 22.8695 9.7413C22.6236 9.97455 22.3334 10.1563 22.0161 10.2759V10.2759Z" stroke="#020203" stroke-width="0.2" stroke-linecap="round" stroke-linejoin="round"/>
<path d="M67.6161 10.1419L66.7292 8.22052L49.7448 16.09L50.6484 18.0282C51.9202 20.7683 56.7562 21.2194 61.4416 19.0474C66.1269 16.8753 68.8711 12.8821 67.6161 10.1419Z" fill="#FFCB45"/>
<path d="M67.6161 10.1419L66.7292 8.22052L49.7448 16.09L50.6484 18.0282C51.9202 20.7516 56.7562 21.2194 61.4416 19.0474C66.1269 16.8753 68.8711 12.8821 67.6161 10.1419Z" stroke="#020203" stroke-width="0.2" stroke-linecap="round" stroke-linejoin="round"/>
<path d="M66.7132 8.22081C65.4415 5.48067 60.6224 5.02953 55.937 7.20159C51.2517 9.37364 48.4738 13.3502 49.7455 16.0903C51.0173 18.8305 55.8533 19.2816 60.5387 17.1095C65.224 14.9375 68.0017 10.9609 66.7132 8.22081Z" fill="#FFF066" stroke="#020203" stroke-width="0.2" stroke-linecap="round" stroke-linejoin="round"/>
<path d="M65.4074 8.80539C64.6042 7.13457 60.7722 6.53304 56.5554 8.5046C54.1791 9.44484 52.2358 11.2305 51.1003 13.517C50.9707 13.8246 50.897 14.1528 50.8828 14.4861C50.8774 14.8237 50.94 15.1589 51.0668 15.4719C51.87 17.1427 55.702 17.7442 59.9188 15.7726C62.2906 14.8317 64.2284 13.0456 65.3572 10.7602C65.4995 10.4561 65.5792 10.1266 65.5915 9.79116C65.5968 9.45358 65.5342 9.11837 65.4074 8.80539V8.80539Z" stroke="#020203" stroke-width="0.2" stroke-linecap="round" stroke-linejoin="round"/>
<path d="M67.0336 11.3448L63.8374 11.0608C61.1266 10.6264 60.2565 11.161 59.47 14.7199L58.0812 19.7323L58.7671 14.6363C59.3695 11.2947 58.9514 10.1586 56.2071 9.54038L53.1615 8.52116L56.3409 8.80522C58.968 9.13938 59.8716 8.50447 60.725 5.14613L62.1138 0.133698L61.3944 5.14613C60.9593 8.3708 61.0598 9.54037 63.9547 10.2588L67.0336 11.3448Z" fill="white"/>
<path d="M29.8697 7.33489L27.8115 7.15108C26.1381 6.86704 25.5189 7.15107 25.0002 9.4902L24.1135 12.6647L24.5651 9.32311C24.95 7.16776 24.6655 6.46602 22.8918 5.98149L20.9341 5.3299L22.9923 5.51366C24.6656 5.73087 25.2512 5.32988 25.8034 3.17453L26.6903 0L26.2384 3.25811C25.954 5.32991 26.0209 6.08178 27.9118 6.59973L29.8697 7.33489Z" fill="white"/>
</svg>
